<?xml version="1.0" standalone="no"?>
<!DOCTYPE svg PUBLIC "-//W3C//DTD SVG 20010904//EN"
 "http://www.w3.org/TR/2001/REC-SVG-20010904/DTD/svg10.dtd">
<svg version="1.0" xmlns="http://www.w3.org/2000/svg"
 width="576.000000pt" height="576.000000pt" viewBox="0 0 576.000000 576.000000"
 preserveAspectRatio="xMidYMid meet">
<metadata>
Created by potrace 1.14, written by Peter Selinger 2001-2017
</metadata>
<g transform="translate(0.000000,576.000000) scale(0.100000,-0.100000)"
fill="#000000" stroke="none">
<path d="M2799 4062 c-211 -173 -551 -447 -577 -467 -15 -11 -64 -53 -109 -93
-59 -52 -86 -85 -98 -116 l-17 -43 49 -64 c95 -126 127 -237 121 -419 -4 -102
-10 -138 -30 -192 -28 -75 -77 -160 -123 -216 -30 -36 -44 -85 -28 -95 12 -8
436 -10 1473 -8 l925 1 -72 74 c-130 135 -189 297 -180 491 5 119 35 213 97
312 22 36 39 68 36 70 -7 7 -70 21 -201 43 -66 12 -253 46 -415 76 -162 31
-341 63 -397 73 l-103 18 0 -197 0 -196 98 -13 c112 -14 334 -47 407 -60 28
-6 72 -13 99 -16 64 -9 99 -43 121 -120 29 -97 4 -199 -58 -240 -21 -14 -102
-15 -735 -13 -668 3 -712 4 -729 21 -16 16 -18 40 -18 245 0 268 -2 261 119
362 44 36 163 139 266 230 104 91 206 180 228 198 l41 32 135 0 136 0 0 205 0
205 -177 -1 -178 0 -106 -87z"/>
<path d="M30 3883 l0 -170 263 -43 262 -43 63 -46 62 -45 0 -178 0 -178 -70 0
-70 0 0 -155 0 -155 75 0 75 0 0 -81 c0 -118 -13 -153 -85 -226 l-62 -62 73
-72 72 -72 49 12 c79 20 145 55 201 107 l54 49 -28 48 c-50 91 -74 190 -74
312 0 66 6 135 15 170 22 86 91 217 142 267 l43 42 0 256 0 257 -157 26 c-87
15 -302 52 -478 82 -176 31 -344 59 -372 62 l-53 6 0 -170z"/>
<path d="M1240 3705 l0 -145 340 0 c187 0 340 2 340 4 0 2 -66 32 -147 66 -82
34 -197 84 -258 110 -202 87 -258 110 -266 110 -5 0 -9 -65 -9 -145z"/>
<path d="M1370 3477 c-106 -32 -174 -72 -255 -149 -195 -184 -241 -488 -112
-733 44 -84 164 -201 252 -247 188 -97 401 -91 584 18 75 44 172 145 215 224
180 332 33 734 -319 875 -58 23 -89 28 -180 31 -94 4 -121 1 -185 -19z m286
-320 c53 -27 112 -85 139 -138 26 -50 31 -166 10 -229 -22 -66 -82 -133 -150
-168 -41 -21 -64 -26 -125 -26 -61 0 -84 5 -125 26 -113 58 -173 166 -163 293
17 207 233 334 414 242z"/>
<path d="M4650 3476 c-134 -32 -212 -78 -312 -184 -75 -80 -119 -161 -148
-276 -23 -92 -24 -142 -5 -249 40 -227 211 -415 435 -476 231 -64 493 28 635
222 l43 58 30 -54 c59 -104 158 -162 299 -174 l73 -6 0 142 c0 131 -1 141 -19
141 -34 0 -105 31 -134 58 -66 62 -97 168 -97 329 l0 93 -55 0 -55 0 -26 52
c-78 154 -190 251 -357 308 -79 27 -230 35 -307 16z m210 -312 c78 -23 169
-116 194 -198 43 -137 -23 -290 -152 -353 -110 -53 -243 -32 -329 54 -117 117
-122 287 -13 406 88 96 185 125 300 91z"/>
<path d="M3135 2932 c-3 -8 -3 -17 -1 -19 7 -8 61 13 61 23 0 15 -54 11 -60
-4z"/>
<path d="M3550 2925 c0 -19 21 -19 46 0 18 14 17 14 -13 15 -23 0 -33 -5 -33
-15z"/>
<path d="M3619 2923 c-13 -15 -11 -16 21 -9 47 9 63 26 23 26 -17 0 -37 -8
-44 -17z"/>
<path d="M2530 2800 l0 -100 30 0 c17 0 29 3 29 8 -1 4 -1 19 0 35 1 23 5 27
30 27 24 0 29 4 28 20 -1 15 -8 20 -29 20 -23 0 -28 4 -28 24 0 20 6 25 32 28
21 2 32 9 34 21 2 15 -7 17 -62 17 l-64 0 0 -100z"/>
<path d="M2690 2828 c0 -40 6 -84 13 -98 11 -22 20 -25 65 -26 73 -2 89 18 88
118 -1 73 -1 73 -29 76 -28 3 -29 2 -27 -40 4 -86 0 -109 -16 -115 -27 -10
-40 20 -39 91 1 66 1 66 -27 66 l-28 0 0 -72z"/>
<path d="M2890 2881 c0 -13 8 -21 23 -23 21 -3 22 -8 22 -78 0 -74 0 -75 28
-78 30 -4 28 -10 29 101 0 53 2 57 24 57 17 0 24 6 24 20 0 18 -7 20 -75 20
-67 0 -75 -2 -75 -19z"/>
<path d="M3103 2890 c-30 -12 -43 -41 -43 -93 0 -29 7 -53 20 -70 17 -22 27
-25 67 -23 62 4 83 29 83 100 0 42 -5 57 -23 74 -24 23 -65 28 -104 12z m68
-61 c14 -53 -15 -109 -42 -82 -13 13 -17 75 -7 96 13 25 40 17 49 -14z"/>
<path d="M3271 2800 c-1 -98 -1 -100 22 -100 22 0 23 3 21 65 -1 35 3 62 7 59
5 -3 9 -15 9 -27 0 -49 11 -67 40 -67 26 0 29 4 38 53 l10 52 1 -67 c1 -66 2
-68 26 -68 l26 0 -2 100 -3 100 -32 0 c-18 0 -35 -3 -37 -7 -7 -11 -19 -84
-19 -107 2 -45 -14 2 -25 77 -5 35 -8 37 -43 37 l-37 0 -2 -100z"/>
<path d="M3510 2822 c0 -95 10 -112 72 -119 40 -5 50 -2 70 18 21 21 24 33 23
99 0 73 -1 75 -26 78 -26 3 -26 3 -28 -69 -2 -81 -4 -89 -32 -89 -16 0 -19 8
-20 58 -1 31 0 67 1 80 1 18 -4 22 -29 22 l-31 0 0 -78z"/>
<path d="M2280 2243 c-35 -44 3 -52 83 -17 54 25 48 44 -12 44 -42 0 -53 -4
-71 -27z"/>
<path d="M1100 2176 c0 -2 -17 -69 -39 -148 -60 -222 -60 -198 -2 -198 l49 0
7 40 7 40 54 0 c47 0 54 -3 55 -20 1 -11 3 -24 4 -30 1 -5 3 -15 4 -21 0 -6
22 -9 54 -7 33 2 51 7 50 15 -1 6 -5 26 -8 44 -3 18 -8 36 -11 41 -5 8 -19 59
-57 206 l-10 42 -79 0 c-43 0 -78 -2 -78 -4z m96 -132 c6 -30 8 -56 6 -59 -3
-3 -18 -5 -34 -5 -25 0 -28 3 -23 21 4 12 8 27 9 33 9 48 19 76 24 71 4 -3 12
-31 18 -61z"/>
<path d="M1428 2168 c-2 -7 -3 -68 -2 -135 2 -134 11 -161 62 -186 36 -18 113
-21 157 -7 19 6 45 25 57 42 19 28 22 44 22 162 l1 131 -50 3 -50 3 1 -127 c0
-136 -6 -154 -50 -154 -42 0 -49 21 -47 155 l1 125 -49 0 c-30 0 -50 -5 -53
-12z"/>
<path d="M1807 2173 c-2 -5 -3 -19 -3 -33 1 -22 6 -25 44 -28 l42 -3 0 -140 0
-139 50 0 50 0 1 63 c1 34 1 97 1 140 l0 77 44 0 c44 0 44 0 44 35 l0 35 -134
0 c-74 0 -137 -3 -139 -7z"/>
<path d="M2230 2165 c-19 -9 -43 -26 -52 -39 -35 -48 -44 -165 -17 -226 18
-39 80 -70 140 -70 105 2 161 70 155 189 -4 76 -19 114 -54 137 -35 23 -129
28 -172 9z m104 -71 c17 -16 19 -29 16 -109 -2 -65 -14 -85 -49 -85 -35 0 -47
24 -50 103 -4 89 39 136 83 91z"/>
<path d="M2595 2167 c-41 -19 -54 -37 -56 -77 -4 -55 9 -78 59 -107 67 -38 71
-41 65 -64 -5 -19 -11 -21 -68 -15 l-62 6 1 -35 c1 -33 3 -35 43 -41 75 -11
135 2 166 36 52 58 32 124 -49 165 -82 42 -69 91 18 68 21 -6 38 -7 39 -4 6
35 4 63 -4 68 -21 13 -123 13 -152 0z"/>
<path d="M2859 2178 c-1 -2 -2 -18 -4 -35 l-3 -33 59 0 58 0 -59 -120 c-33
-66 -60 -129 -60 -140 0 -20 5 -21 122 -18 l122 3 1 33 1 32 -58 0 c-32 0 -58
3 -58 6 0 3 25 54 55 113 30 59 55 120 55 134 l0 27 -115 0 c-63 0 -115 -1
-116 -2z"/>
<path d="M3179 2115 c0 -36 0 -92 0 -125 0 -33 0 -82 0 -110 l1 -50 109 0 c95
0 109 2 113 18 10 43 -1 52 -63 52 l-59 0 0 35 0 35 50 0 50 0 0 35 0 35 -50
0 -50 0 0 35 0 35 60 0 60 0 0 35 0 35 -110 0 -110 0 -1 -65z"/>
<path d="M3498 2114 c-2 -38 -2 -117 0 -176 l3 -108 50 0 49 0 0 60 c0 78 17
78 52 0 l27 -60 50 0 c28 0 51 3 51 6 0 3 -16 37 -35 75 -19 38 -30 69 -25 69
31 0 59 95 40 139 -18 43 -46 54 -157 59 l-102 4 -3 -68z m146 -10 c33 -13 16
-84 -20 -84 -22 0 -24 4 -24 45 0 46 8 53 44 39z"/>
<path d="M3847 2173 c-2 -5 14 -84 36 -176 l41 -168 79 3 c62 2 81 6 83 18 1
8 16 71 34 140 17 69 33 136 36 149 3 14 7 28 10 33 3 4 -19 8 -49 8 -36 0
-54 -4 -54 -12 -1 -23 -53 -261 -58 -266 -3 -3 -5 1 -6 9 0 8 -2 21 -4 29 -2
8 -13 66 -26 128 l-22 112 -48 0 c-26 0 -50 -3 -52 -7z"/>
<path d="M4250 2005 l0 -175 50 0 50 0 0 175 0 175 -50 0 -50 0 0 -175z"/>
<path d="M4446 2172 c-3 -5 -3 -17 -1 -28 2 -10 4 -22 4 -26 1 -5 26 -8 56 -8
l54 0 -57 -112 c-31 -62 -58 -125 -59 -140 l-1 -28 119 0 c65 0 120 3 120 8 9
54 6 57 -53 60 -57 3 -72 14 -48 38 20 20 100 196 100 220 l0 24 -114 0 c-63
0 -117 -4 -120 -8z"/>
</g>
</svg>
